<?xml version="1.0" standalone="no"?>
<!DOCTYPE svg PUBLIC "-//W3C//DTD SVG 20010904//EN"
 "http://www.w3.org/TR/2001/REC-SVG-20010904/DTD/svg10.dtd">
<svg version="1.0" xmlns="http://www.w3.org/2000/svg"
 width="260.000000pt" height="260.000000pt" viewBox="0 0 260.000000 260.000000"
 preserveAspectRatio="xMidYMid meet">
<metadata>
Created by potrace 1.14, written by Peter Selinger 2001-2017
</metadata>
<g transform="translate(0.000000,260.000000) scale(0.100000,-0.100000)"
fill="#000000" stroke="none">
<path d="M253 2316 c-5 -12 -9 -28 -8 -36 0 -8 -5 -21 -12 -28 -8 -8 -11 -29
-9 -53 2 -25 0 -39 -8 -39 -6 0 -4 -4 4 -10 12 -8 12 -10 -3 -16 -22 -8 -22
-24 -1 -24 14 0 14 -3 4 -15 -7 -8 -9 -15 -4 -15 5 0 2 -4 -6 -10 -12 -8 -12
-10 3 -16 16 -6 16 -8 -4 -25 -12 -11 -17 -19 -10 -19 7 0 9 -4 6 -10 -3 -5 2
-10 11 -10 16 0 16 -1 0 -19 -12 -13 -14 -20 -5 -23 14 -5 20 -96 7 -104 -4
-3 -1 -12 7 -20 8 -9 13 -20 10 -25 -4 -5 -2 -9 3 -9 5 0 8 -18 7 -40 -1 -24
3 -40 9 -40 7 0 11 -15 10 -37 0 -21 3 -41 9 -44 5 -4 10 -27 12 -52 1 -25 6
-52 12 -59 6 -7 10 -25 8 -40 -2 -18 3 -31 13 -38 10 -5 13 -10 8 -10 -4 0 -2
-10 6 -22 16 -26 18 -115 3 -126 -6 -4 -10 -17 -9 -30 1 -13 -5 -26 -12 -29
-8 -3 -11 -9 -8 -14 3 -5 -1 -11 -8 -14 -19 -8 -19 -416 0 -423 7 -2 10 -8 6
-13 -3 -5 2 -9 10 -9 9 0 13 -7 11 -19 -2 -11 3 -27 10 -38 8 -10 15 -24 15
-31 0 -16 25 -43 32 -36 3 2 5 -8 4 -23 -1 -22 4 -29 22 -31 16 -2 22 -10 22
-27 0 -15 7 -26 20 -30 11 -4 19 -9 17 -13 -2 -4 10 -19 25 -34 15 -15 28 -25
28 -22 0 3 6 -1 14 -8 8 -7 12 -16 9 -20 -2 -5 3 -8 11 -8 9 0 16 -5 16 -11 0
-5 5 -7 12 -3 8 5 9 2 5 -9 -4 -12 -1 -17 11 -17 23 -1 54 -25 44 -35 -4 -5
-2 -5 5 -2 16 10 43 -3 43 -20 0 -8 4 -12 10 -8 5 3 18 -3 30 -15 11 -11 20
-15 20 -10 0 6 17 0 38 -13 20 -13 45 -23 55 -21 9 1 17 -2 17 -7 0 -5 3 -8 8
-8 19 3 33 -2 27 -11 -3 -5 2 -11 12 -11 78 -6 107 -15 96 -32 -4 -6 -1 -7 7
-2 20 13 60 14 60 3 0 -7 5 -7 13 -1 14 10 143 11 153 0 4 -3 14 -3 23 1 20
10 164 8 180 -2 6 -4 11 -3 11 2 0 4 30 7 68 6 37 -1 76 3 87 9 26 15 57 16
74 3 11 -8 13 -8 7 2 -4 7 -2 12 4 12 6 0 8 6 4 13 -4 6 -3 9 1 4 5 -4 18 -1
29 6 12 8 29 13 39 11 10 -1 21 4 24 12 3 8 9 12 13 9 10 -6 70 24 70 35 0 5
9 7 19 5 11 -2 22 3 25 12 3 8 12 13 18 11 7 -3 21 6 31 19 10 13 25 23 33 23
8 0 14 7 14 15 0 8 5 15 10 15 6 0 13 1 16 3 13 5 99 92 97 98 -1 3 8 12 21
18 16 9 22 20 20 37 -2 21 0 23 12 13 11 -9 14 -8 14 5 0 9 4 16 10 16 5 0 7
7 4 15 -4 8 1 17 10 21 9 3 14 10 11 14 -3 4 2 10 10 14 8 3 12 12 9 21 -4 9
-1 15 8 15 11 0 14 11 13 40 -1 21 2 37 6 34 4 -2 10 5 14 16 4 11 10 18 14
16 3 -3 6 57 6 132 -1 75 3 145 8 156 6 12 6 16 -1 12 -6 -3 -10 7 -10 27 1
56 -2 67 -17 67 -16 0 -17 2 -19 50 0 17 -5 34 -11 38 -5 4 -10 30 -9 57 2 72
3 77 16 69 7 -4 8 -3 4 4 -4 6 0 22 8 35 9 12 14 33 12 44 -3 12 1 26 8 32 7
6 11 30 11 55 -1 25 2 43 7 40 4 -3 8 1 9 8 1 7 3 27 5 43 2 17 5 36 6 43 1 6
5 12 10 12 5 0 7 4 3 9 -3 5 -1 12 5 16 7 4 7 12 0 25 -7 13 -6 22 4 32 8 9
13 35 12 72 -1 36 3 64 11 72 18 17 16 24 -4 24 -17 1 -17 2 0 14 20 16 21 24
4 45 -9 11 -9 15 0 18 7 2 9 11 6 19 -3 7 -9 12 -13 9 -5 -3 -7 3 -6 12 2 9 8
19 15 21 9 3 9 7 0 19 -14 16 -21 83 -9 83 5 0 3 11 -3 25 -7 14 -15 25 -19
25 -4 0 -5 7 -2 15 4 8 1 21 -5 29 -6 7 -7 17 -3 21 4 5 1 5 -5 1 -7 -4 -13
-3 -13 3 0 14 -73 7 -78 -7 -2 -7 -12 -12 -21 -12 -10 0 -21 -3 -25 -7 -4 -5
-15 -8 -25 -8 -9 0 -27 -10 -41 -23 -13 -12 -30 -20 -37 -18 -7 3 -13 1 -13
-5 0 -13 -21 -33 -40 -37 -8 -2 -19 -9 -25 -16 -10 -13 -45 -30 -56 -28 -4 1
-4 -8 -1 -20 3 -14 1 -19 -6 -14 -5 3 -23 -4 -39 -17 -15 -13 -36 -26 -45 -30
-10 -4 -15 -12 -12 -21 4 -10 -2 -15 -18 -18 -13 -2 -28 -15 -36 -30 -7 -16
-19 -28 -26 -28 -16 0 -33 -18 -38 -40 -4 -19 -21 -39 -30 -34 -4 2 -9 -5 -13
-16 -3 -11 -15 -25 -25 -30 -11 -6 -17 -18 -15 -29 2 -10 -2 -18 -8 -18 -33 1
-47 -4 -47 -18 0 -18 22 -17 -328 -17 -281 -1 -283 0 -299 22 -9 13 -22 20
-33 17 -13 -3 -16 0 -13 14 3 11 -1 21 -11 25 -9 3 -16 13 -16 21 0 8 -4 11
-10 8 -5 -3 -10 1 -10 10 0 9 -4 13 -10 10 -5 -3 -10 1 -10 10 0 9 -4 13 -10
10 -5 -3 -10 2 -10 12 0 24 -19 43 -43 43 -10 0 -16 4 -13 8 9 14 -24 52 -45
52 -13 0 -19 7 -19 24 0 20 -4 23 -22 18 -14 -3 -19 -2 -14 6 4 7 1 12 -7 12
-8 0 -17 7 -21 15 -3 9 -12 12 -22 8 -14 -5 -16 -2 -12 15 5 18 2 22 -17 22
-13 0 -25 6 -28 14 -3 8 -22 22 -41 31 -20 10 -36 23 -36 30 0 7 -8 12 -17 11
-10 -2 -26 6 -36 18 -10 12 -26 21 -35 21 -10 1 -27 6 -39 13 -13 7 -23 9 -23
5 0 -4 -4 -1 -9 6 -6 9 -27 15 -50 16 -31 1 -41 -3 -48 -19z"/>
</g>
</svg>
